<svg width="24" height="24" viewBox="0 0 24 24" fill="none" xmlns="http://www.w3.org/2000/svg">
<path d="M11.9663 0.960943C11.9135 0.961183 11.8603 0.969913 11.8097 0.987193L1.7625 4.48407C1.54938 4.55799 1.41591 4.77085 1.44375 4.99501L3.03188 18.0141C3.0506 18.1681 3.14164 18.3039 3.27844 18.3778L11.7497 22.9819C11.8207 23.0208 11.8997 23.04 11.9784 23.04C12.0576 23.04 12.1375 23.0203 12.2091 22.9809L20.7234 18.3141C20.8588 18.2397 20.9508 18.1044 20.9691 17.9513L22.5563 4.93313C22.5841 4.70801 22.4493 4.49328 22.2338 4.42032L12.1219 0.985318C12.0715 0.968518 12.019 0.960703 11.9663 0.960943ZM12 3.36001L18.24 16.8H16.11L14.775 13.9238H9.225L7.89 16.8H5.76L12 3.36001ZM12 7.92001L10.1184 12H13.8816L12 7.92001Z" fill="#023259"/>
</svg>
