<svg width="362" height="800" viewBox="0 0 362 800" fill="none" xmlns="http://www.w3.org/2000/svg">
<mask id="path-1-inside-1_7_724" fill="white">
<path fill-rule="evenodd" clip-rule="evenodd" d="M362 0H0V800H362V0ZM51.4794 56.9419C45.035 59.5126 40.4745 65.4255 39.4282 72.2844C8.20785 276.961 7.0123 395.863 39.8136 591.54C40.651 596.536 43.4266 601.137 47.4979 604.151C153.743 682.815 212.541 667.388 309.95 603.961C314.415 601.054 317.545 596.368 318.574 591.14C358.402 388.804 355.323 271.883 319.095 72.9084C317.785 65.7164 312.614 59.7491 305.648 57.5305C202.532 24.6854 142.656 20.5703 51.4794 56.9419Z"/>
</mask>
<path fill-rule="evenodd" clip-rule="evenodd" d="M362 0H0V800H362V0ZM51.4794 56.9419C45.035 59.5126 40.4745 65.4255 39.4282 72.2844C8.20785 276.961 7.0123 395.863 39.8136 591.54C40.651 596.536 43.4266 601.137 47.4979 604.151C153.743 682.815 212.541 667.388 309.95 603.961C314.415 601.054 317.545 596.368 318.574 591.14C358.402 388.804 355.323 271.883 319.095 72.9084C317.785 65.7164 312.614 59.7491 305.648 57.5305C202.532 24.6854 142.656 20.5703 51.4794 56.9419Z" fill="#006666"/>
<path d="M0 0V-5H-5V0H0ZM362 0H367V-5H362V0ZM0 800H-5V805H0V800ZM362 800V805H367V800H362ZM39.4282 72.2844L34.4854 71.5304V71.5304L39.4282 72.2844ZM51.4794 56.9419L49.6268 52.2978L51.4794 56.9419ZM39.8136 591.54L34.8824 592.367H34.8824L39.8136 591.54ZM47.4979 604.151L50.4731 600.133L50.4731 600.133L47.4979 604.151ZM309.95 603.961L307.222 599.771L309.95 603.961ZM318.574 591.14L313.668 590.175V590.175L318.574 591.14ZM319.095 72.9084L314.176 73.804V73.804L319.095 72.9084ZM305.648 57.5305L307.166 52.7663L305.648 57.5305ZM0 5H362V-5H0V5ZM5 800V0H-5V800H5ZM362 795H0V805H362V795ZM357 0V800H367V0H357ZM44.3711 73.0384C45.1591 67.8718 48.5907 63.4773 53.332 61.586L49.6268 52.2978C41.4792 55.5479 35.7898 62.9792 34.4854 71.5304L44.3711 73.0384ZM44.7448 590.713C12.0405 395.615 13.2216 277.25 44.3711 73.0383L34.4854 71.5304C3.19409 276.672 1.98407 396.111 34.8824 592.367L44.7448 590.713ZM50.4731 600.133C47.4639 597.905 45.3726 594.459 44.7448 590.713L34.8824 592.367C35.9295 598.613 39.3894 604.369 44.5226 608.17L50.4731 600.133ZM307.222 599.771C258.577 631.446 220.506 650.464 181.795 652.346C143.291 654.218 103.171 639.15 50.4731 600.133L44.5226 608.169C98.0702 647.816 140.471 664.367 182.28 662.334C223.882 660.312 263.914 639.904 312.678 608.151L307.222 599.771ZM313.668 590.175C312.896 594.096 310.539 597.612 307.222 599.771L312.678 608.151C318.291 604.497 322.194 598.639 323.48 592.106L313.668 590.175ZM314.176 73.804C350.306 272.239 353.361 388.524 313.668 590.175L323.48 592.106C363.443 389.083 360.341 271.526 324.014 72.0127L314.176 73.804ZM304.131 62.2946C309.305 63.9426 313.192 68.4006 314.176 73.804L324.014 72.0127C322.379 63.0321 315.923 55.5556 307.166 52.7663L304.131 62.2946ZM53.332 61.586C98.4751 43.5778 135.575 35.7036 174.011 36.2794C212.537 36.8564 252.736 45.9241 304.131 62.2946L307.166 52.7663C255.444 36.2918 214.147 26.8794 174.161 26.2805C134.087 25.6802 95.6602 33.9344 49.6268 52.2978L53.332 61.586Z" fill="#023259" mask="url(#path-1-inside-1_7_724)"/>
</svg>
