<svg width="1924" height="3700" viewBox="0 0 1924 3700" fill="none" xmlns="http://www.w3.org/2000/svg">
<path fill-rule="evenodd" clip-rule="evenodd" d="M1924 0H0V3699.47H1924V1246.33C1923.96 1537.02 1868.46 1830.56 1750.39 2203.87C1748.62 2209.47 1744.32 2214.18 1738.89 2216.43C1145.95 2462.76 802.37 2524.95 156.438 2216.84C151.188 2214.34 147.134 2209.49 145.622 2203.87C-52.4698 1467.92 -44.4243 1030.61 145.172 258.035C146.913 250.939 152.55 245.188 159.616 243.332C731.991 92.9985 1085.86 110.239 1735.66 243.935C1742.9 245.423 1748.9 250.953 1750.98 258.039C1863.59 642.368 1923.96 942.497 1924 1245.67V0Z" fill="#006666"/>
</svg>
