<svg width="20" height="20" viewBox="0 0 20 20" fill="none" xmlns="http://www.w3.org/2000/svg">
<g clip-path="url(#clip0_26_25082)">
<rect x="2" y="2" width="17" height="15" fill="#519391"/>
<path d="M17.9766 15.707H14.8945V12.6953C15.4844 12.0273 15.8398 11.1602 15.8398 10.2109C15.8398 8.11719 14.1055 6.41797 11.9727 6.41797C9.83984 6.41797 8.10547 8.12109 8.10547 10.2109C8.10547 11.1602 8.46094 12.0273 9.05078 12.6953V15.707H2.02344V2.02344H17.9727V15.707H17.9766ZM11.9727 16.1016L10.6562 17.1133V13.7812C11.0664 13.9258 11.5117 14.0078 11.9727 14.0078C12.4336 14.0078 12.8789 13.9297 13.2891 13.7812V17.1133L11.9727 16.1016ZM11.9727 12.4141C10.7188 12.4141 9.69922 11.4258 9.69922 10.2109C9.69922 8.99609 10.7188 8.00781 11.9727 8.00781C13.2266 8.00781 14.2461 8.99609 14.2461 10.2109C14.2461 11.4258 13.2266 12.4141 11.9727 12.4141ZM18.7734 0.429688H1.22656C0.785156 0.429688 0.429688 0.785156 0.429688 1.22656V16.5039C0.429688 16.9453 0.785156 17.3008 1.22656 17.3008H9.05078V18.7891C9.05078 19.4336 9.79297 19.8008 10.3047 19.4062L11.9727 18.125L13.6406 19.4062C14.1523 19.8008 14.8945 19.4336 14.8945 18.7891V17.3008H18.7734C19.2148 17.3008 19.5703 16.9453 19.5703 16.5039V1.22656C19.5703 0.785156 19.2148 0.429688 18.7734 0.429688Z" fill="#023259"/>
<path d="M5.90234 5.66016H14.0938C14.5352 5.66016 14.8906 5.30469 14.8906 4.86328C14.8906 4.42188 14.5352 4.06641 14.0938 4.06641H5.90234C5.46094 4.06641 5.10547 4.42188 5.10547 4.86328C5.10547 5.30078 5.46484 5.66016 5.90234 5.66016Z" fill="#023259"/>
</g>
<defs>
<clipPath id="clip0_26_25082">
<rect width="20" height="20" fill="white"/>
</clipPath>
</defs>
</svg>
