<svg width="2568" height="4352" viewBox="0 0 2568 4352" fill="none" xmlns="http://www.w3.org/2000/svg">
<path fill-rule="evenodd" clip-rule="evenodd" d="M2568 0H0V4352H2568V1466.36C2567.92 1808.68 2493.66 2154.39 2335.7 2594.23C2333.7 2599.79 2329.18 2604.35 2323.63 2606.39C1529.81 2897.26 1071.04 2970.86 206.322 2606.82C200.873 2604.52 196.55 2599.75 194.822 2594.1C-70.2546 1726.75 -59.423 1212.1 194.366 301.387C196.325 294.359 202.131 288.783 209.238 287.134C976.636 109.056 1449.36 129.486 2320.71 287.703C2327.89 289.006 2333.98 294.291 2336.28 301.213C2487.07 754.372 2567.91 1108 2568 1465.2V0Z" fill="#006666"/>
</svg>
