<?xml version="1.0" encoding="utf-8"?>
<!-- Generator: Adobe Illustrator 24.2.3, SVG Export Plug-In . SVG Version: 6.00 Build 0)  -->
<svg version="1.1" xmlns="http://www.w3.org/2000/svg" xmlns:xlink="http://www.w3.org/1999/xlink" x="0px" y="0px"
	 viewBox="0 0 300 300" style="enable-background:new 0 0 300 300;" xml:space="preserve">
<style type="text/css">
	.st0{fill:#003555;}
	.st1{fill:#6B938D;}
	.st2{fill:#36857B;}
</style>
<g id="Layer_1">
</g>
<g id="Isolation_Mode">
	<g>
		<path class="st0" d="M236.3,300H58c-0.5,0-0.8-0.4-0.8-0.8V0.8C57.1,0.4,57.5,0,58,0h178.3c0.5,0,0.8,0.4,0.8,0.8v298.3
			C237.1,299.6,236.7,300,236.3,300z"/>
		<rect x="69.1" y="14.7" class="st1" width="155.9" height="268.6"/>
		<g>
			<polyline class="st0" points="188.7,115.9 188.7,10.9 228.5,10.9 228.5,115.5 206.4,136.9 188.7,115.5 			"/>
			<polyline class="st2" points="194.4,107.8 194.4,12.9 224.9,12.9 224.9,108.9 208,128.6 194.4,108.9 			"/>
		</g>
	</g>
</g>
</svg>
