<svg width="24" height="24" viewBox="0 0 24 24" fill="none" xmlns="http://www.w3.org/2000/svg">
<path d="M8.53968 22.4813C8.88096 22.3344 9.12 21.995 9.12 21.6V19.008C9.12 18.9134 9.12768 18.815 9.13968 18.7152C9.13296 18.7171 9.12672 18.7186 9.12 18.72C9.12 18.72 7.68 18.72 7.392 18.72C6.672 18.72 6.048 18.432 5.76 17.856C5.424 17.232 5.28 16.176 4.416 15.6C4.272 15.504 4.368 15.36 4.656 15.36C4.944 15.408 5.568 15.792 5.952 16.32C6.384 16.848 6.816 17.28 7.584 17.28C8.77776 17.28 9.4176 17.22 9.80256 17.0136C10.2509 16.3469 10.8715 15.84 11.52 15.84V15.828C8.79936 15.7406 7.06128 14.8363 6.252 13.44C4.4928 13.4602 2.96112 13.6344 2.08704 13.7794C2.0592 13.6224 2.0352 13.4645 2.01456 13.3056C2.87712 13.1635 4.3392 12.995 6.02016 12.9629C5.9664 12.8304 5.91984 12.6946 5.88048 12.5554C4.1952 12.4699 2.7408 12.5366 1.95072 12.6019C1.94112 12.4426 1.92816 12.2837 1.92624 12.1224C2.71776 12.0576 4.1328 11.9928 5.77488 12.0691C5.73696 11.8291 5.71248 11.5838 5.71248 11.3285C5.71248 10.5125 6.00048 9.64849 6.52848 8.92849C6.28848 8.11249 5.95248 6.38449 6.62448 5.76049C7.92048 5.76049 8.83248 6.38449 9.26448 6.76849C10.08 6.43201 10.992 6.24001 12 6.24001C13.008 6.24001 13.92 6.43201 14.688 6.76801C15.12 6.38401 16.032 5.76001 17.328 5.76001C18.048 6.43201 17.664 8.16001 17.424 8.92801C17.952 9.64801 18.24 10.464 18.192 11.328C18.192 11.5603 18.1704 11.7845 18.1392 12.0043C19.8187 11.9218 21.2722 11.988 22.0771 12.0533C22.0762 12.215 22.0613 12.373 22.0526 12.5328C21.2506 12.4666 19.7606 12.3984 18.0403 12.4901C17.9976 12.6514 17.9458 12.8083 17.8843 12.9605C19.5864 12.9826 21.0835 13.1472 21.9874 13.2912C21.9667 13.4506 21.9427 13.6085 21.9149 13.765C20.9971 13.6181 19.4328 13.4462 17.653 13.4376C16.8538 14.819 15.1474 15.72 12.48 15.8251V15.84C13.728 15.84 14.88 17.712 14.88 19.008V21.6C14.88 21.995 15.119 22.3344 15.4603 22.4813C19.8576 21.0259 23.04 16.8787 23.04 12C23.04 5.91265 18.0878 0.960007 12 0.960007C5.91216 0.960007 0.96 5.91265 0.96 12C0.96 16.8787 4.1424 21.0259 8.53968 22.4813Z" fill="#023259"/>
</svg>
