<svg width="20" height="20" viewBox="0 0 20 20" fill="none" xmlns="http://www.w3.org/2000/svg">
<g clip-path="url(#clip0_24_13667)">
<path d="M2.568 0.000961304H17.4332C18.8455 0.000961304 20 1.15589 20 2.56816V17.4334C20 18.8452 18.8455 19.9994 17.4332 19.9994H2.568C1.15573 19.9994 0 18.8452 0 17.4334V2.56816C0 1.15589 1.15573 0.000961304 2.568 0.000961304ZM14.5697 2.22209C14.0739 2.22209 13.6694 2.62816 13.6694 3.12376V5.27803C13.6694 5.77383 14.0739 6.17896 14.5697 6.17896H16.8299C17.325 6.17896 17.7303 5.77383 17.7303 5.27803V3.12376C17.7303 2.62816 17.325 2.22209 16.8299 2.22209H14.5697ZM17.7389 8.45803H15.9792C16.1461 9.00303 16.2365 9.57776 16.2365 10.1753C16.2365 13.5008 13.4521 16.198 10.0188 16.198C6.58633 16.198 3.80187 13.5008 3.80187 10.1753C3.80187 9.57776 3.8932 9.00303 4.05927 8.45803H2.22333V16.9068C2.22333 17.3444 2.5806 17.7003 3.01773 17.7003H16.9449C17.3824 17.7003 17.7389 17.3444 17.7389 16.9068V8.45803ZM10.0189 6.06536C7.80153 6.06536 6.00287 7.80723 6.00287 9.9579C6.00287 12.1064 7.80153 13.8496 10.0189 13.8496C12.2374 13.8496 14.0361 12.1064 14.0361 9.9579C14.0361 7.80716 12.2374 6.06536 10.0189 6.06536Z" fill="#023259"/>
</g>
<defs>
<clipPath id="clip0_24_13667">
<rect width="20" height="20" fill="white"/>
</clipPath>
</defs>
</svg>
