<svg width="18" height="18" viewBox="0 0 18 18" fill="none" xmlns="http://www.w3.org/2000/svg">
<mask id="mask0_18_8002" style="mask-type:alpha" maskUnits="userSpaceOnUse" x="0" y="0" width="18" height="18">
<path d="M17.0955 8.89655C17.0955 13.5446 13.4151 17.2931 8.89888 17.2931C4.38266 17.2931 0.702248 13.5446 0.702248 8.89655C0.702248 4.24849 4.38266 0.5 8.89888 0.5C13.4151 0.5 17.0955 4.24849 17.0955 8.89655Z" fill="#D9D9D9" stroke="#66CC99"/>
</mask>
<g mask="url(#mask0_18_8002)">
<path d="M7.68539 0.206902C4.79365 8.44094 5.1912 12.0682 7.68539 17.5862" stroke="#023259"/>
<path d="M5.25843 0.827583C2.07751 8.66953 2.51481 12.1241 5.25843 17.3793" stroke="#023259"/>
<path d="M3.75724 1.52113C0.865496 8.77492 1.26304 11.9704 3.75724 16.8315" stroke="#023259"/>
<path d="M10.5169 0.206902C12.8303 8.53897 12.5122 12.2094 10.5169 17.7931" stroke="#023259"/>
<path d="M8.89888 0.206902C8.60971 8.53897 8.64946 12.2094 8.89888 17.7931" stroke="#023259"/>
<path d="M13.7528 1.03448C16.0662 8.7784 15.7482 12.1898 13.7528 17.3793" stroke="#023259"/>
<path d="M16.1798 14.069C9.37266 17.282 6.37616 16.8354 1.82025 14.0512" stroke="#023259"/>
<path d="M17.1937 11.1926C9.42853 14.1409 6.00981 13.7301 0.811421 11.1724" stroke="#023259"/>
<path d="M16.9914 4.36505C9.22627 7.31334 5.80756 6.90248 0.609166 4.34483" stroke="#023259"/>
<path d="M16.5869 1.46849C8.82179 4.41678 5.40308 4.00592 0.204686 1.44827" stroke="#023259"/>
<path d="M17.5957 7.46974C9.35114 10.7129 5.72142 10.2612 0.202257 7.44827" stroke="#023259"/>
</g>
<circle cx="9" cy="9" r="8.5" stroke="#023259"/>
</svg>
