<svg width="24" height="24" viewBox="0 0 24 24" fill="none" xmlns="http://www.w3.org/2000/svg">
<g clip-path="url(#clip0_24_16681)">
<path d="M22.4167 1.9248L21.5816 1.18605C19.6366 -0.538681 16.6582 -0.359849 14.9341 1.58566L12.544 4.28209C12.0045 4.89079 12.0606 5.82528 12.6691 6.36524L12.8934 6.56428C13.5039 7.1056 14.4356 7.04971 14.9773 6.43906L17.3672 3.74271C17.9003 3.14179 18.8238 3.08649 19.4251 3.61876L20.2592 4.35878C20.8607 4.89172 20.9173 5.81505 20.3834 6.41632L15.1573 12.3119C14.715 12.8117 13.9912 12.9465 13.3972 12.6396C12.7477 12.3042 11.9555 12.4515 11.4705 12.9985L11.4297 13.0445C11.1016 13.4146 10.9648 13.9059 11.0544 14.3926C11.1441 14.8789 11.4469 15.2892 11.8852 15.5182C12.5782 15.8805 13.3267 16.0558 14.0678 16.0558C15.3811 16.0558 16.6717 15.5052 17.5912 14.4683L22.817 8.57337C24.5392 6.63049 24.3599 3.64835 22.4167 1.9248Z" fill="#339999"/>
<path d="M11.3301 17.6364L11.1052 17.4372C10.4961 16.8975 9.56136 16.9542 9.02182 17.5631L6.63283 20.2592C6.09946 20.8599 5.17664 20.9157 4.57588 20.3837L3.74057 19.6427C3.13897 19.1099 3.08249 18.1874 3.61653 17.5859L8.84248 11.6907C9.27574 11.2014 9.98861 11.0615 10.5762 11.3502C11.2514 11.6819 12.0713 11.5206 12.5712 10.9565L12.59 10.9353C12.9111 10.5728 13.0463 10.0916 12.9609 9.6151C12.8755 9.13855 12.5817 8.7343 12.1548 8.50584C10.2246 7.47258 7.86208 7.89536 6.40961 9.53444L1.18332 15.4284V15.4285C-0.539131 17.3714 -0.359961 20.3535 1.58292 22.0763L2.41806 22.8161C3.3129 23.6095 4.42791 23.9992 5.53921 23.9992C6.84083 23.9992 8.13705 23.4642 9.06663 22.416L11.456 19.7199C11.9965 19.1095 11.941 18.1781 11.3301 17.6364Z" fill="#339999"/>
</g>
<defs>
<clipPath id="clip0_24_16681">
<rect width="24" height="24" fill="white"/>
</clipPath>
</defs>
</svg>
