<svg width="22" height="22" viewBox="0 0 22 22" fill="none" xmlns="http://www.w3.org/2000/svg">
<g clip-path="url(#clip0_24_16671)">
<path d="M5.12103 7.07761H0.704494C0.508481 7.07761 0.349655 7.2365 0.349655 7.43244V21.6209C0.349655 21.8169 0.508481 21.9757 0.704494 21.9757H5.12103C5.31704 21.9757 5.47587 21.8169 5.47587 21.6209V7.43244C5.47587 7.2365 5.31704 7.07761 5.12103 7.07761Z" fill="#023259"/>
<path d="M2.91436 0.0242004C1.30737 0.0242004 0 1.33015 0 2.93537C0 4.5413 1.30737 5.84774 2.91436 5.84774C4.52008 5.84774 5.82638 4.54123 5.82638 2.93537C5.82645 1.33015 4.52008 0.0242004 2.91436 0.0242004Z" fill="#023259"/>
<path d="M16.3548 6.72498C14.581 6.72498 13.2697 7.48752 12.4744 8.35397V7.43245C12.4744 7.23651 12.3155 7.07761 12.1195 7.07761H7.88991C7.6939 7.07761 7.53507 7.23651 7.53507 7.43245V21.6209C7.53507 21.8169 7.6939 21.9757 7.88991 21.9757H12.2968C12.4928 21.9757 12.6516 21.8169 12.6516 21.6209V14.6009C12.6516 12.2353 13.2942 11.3137 14.9432 11.3137C16.7391 11.3137 16.8818 12.7912 16.8818 14.7226V21.621C16.8818 21.817 17.0406 21.9758 17.2366 21.9758H21.6452C21.8412 21.9758 22 21.817 22 21.621V13.8384C22 10.3208 21.3293 6.72498 16.3548 6.72498Z" fill="#023259"/>
</g>
<defs>
<clipPath id="clip0_24_16671">
<rect width="22" height="22" fill="white"/>
</clipPath>
</defs>
</svg>
