<svg width="20" height="20" viewBox="0 0 20 20" fill="none" xmlns="http://www.w3.org/2000/svg">
<path d="M18.4599 2.50211H1.54008C0.691983 2.50211 0 3.19409 0 4.04219V15.9578C0 16.8059 0.691983 17.4979 1.54008 17.4979H18.4599C19.308 17.4979 20 16.8059 20 15.9578V4.04219C20 3.19409 19.308 2.50211 18.4599 2.50211ZM18.2363 3.64135L10.1055 10.5949L1.97468 3.64135H18.2363ZM18.8608 15.9578C18.8608 16.1772 18.6793 16.3586 18.4599 16.3586H1.54008C1.32068 16.3586 1.13924 16.1772 1.13924 15.9578V4.42616L9.73418 11.7764C9.7384 11.7806 9.74684 11.7848 9.75106 11.789C9.75527 11.7932 9.76371 11.7975 9.76793 11.8017C9.78059 11.8101 9.78903 11.8186 9.80169 11.8228C9.80591 11.827 9.81013 11.827 9.81435 11.8312C9.83122 11.8397 9.8481 11.8481 9.86498 11.8565C9.8692 11.8565 9.87342 11.8608 9.87764 11.8608C9.8903 11.865 9.90295 11.8734 9.91983 11.8776C9.92405 11.8776 9.93249 11.8819 9.93671 11.8819C9.94937 11.8861 9.96203 11.8903 9.97468 11.8903C9.9789 11.8903 9.98734 11.8945 9.99156 11.8945C10.0042 11.8987 10.0211 11.8987 10.0338 11.903C10.038 11.903 10.0422 11.903 10.0464 11.903C10.0633 11.903 10.0844 11.9072 10.1013 11.9072C10.1181 11.9072 10.1392 11.9072 10.1561 11.903C10.1603 11.903 10.1646 11.903 10.1688 11.903C10.1814 11.903 10.1983 11.8987 10.211 11.8945C10.2152 11.8945 10.2236 11.8903 10.2278 11.8903C10.2405 11.8861 10.2532 11.8819 10.2658 11.8819C10.27 11.8819 10.2785 11.8776 10.2827 11.8776C10.2954 11.8734 10.308 11.8692 10.3249 11.8608C10.3291 11.8608 10.3333 11.8565 10.3376 11.8565C10.3544 11.8481 10.3713 11.8397 10.3882 11.8312C10.3924 11.827 10.3966 11.827 10.4008 11.8228C10.4135 11.8143 10.4219 11.8101 10.4346 11.8017C10.4388 11.7975 10.4473 11.7932 10.4515 11.789C10.4557 11.7848 10.4641 11.7806 10.4684 11.7764L18.8608 4.60759V15.9578Z" fill="#023259"/>
</svg>
