<svg width="332" height="501" viewBox="0 0 332 501" fill="none" xmlns="http://www.w3.org/2000/svg">
<path d="M37.3632 22.7008C82.4893 8.3597 119.827 2.04238 158.604 2.52571C197.414 3.00945 237.786 10.3061 289.006 23.3422C295.284 24.94 300.16 29.974 301.594 36.3057C319.35 114.727 328.94 177.101 329.243 239.757C329.545 302.405 320.561 365.447 301.054 445.191C299.875 450.012 296.645 454.152 292.255 456.434C244.048 481.487 205.659 496.839 166.351 498.373C127.111 499.904 86.6128 487.672 34.2289 456.801C30.1097 454.374 27.167 450.216 26.1866 445.508C-5.89414 291.461 -4.75906 196.986 25.7793 35.8873C26.9522 29.7001 31.4028 24.5951 37.3632 22.7008Z" fill="#519391" stroke="#023259" stroke-width="5"/>
</svg>
