<svg width="332" height="501" viewBox="0 0 332 501" fill="none" xmlns="http://www.w3.org/2000/svg">
<path d="M38.1205 25.0834C83.0529 10.8039 120.121 4.54623 158.574 5.02551C197.092 5.50563 237.243 12.7472 288.391 25.765C293.752 27.1293 297.93 31.4355 299.157 36.8578C316.894 115.195 326.444 177.37 326.745 239.769C327.046 302.151 318.104 364.981 298.627 444.597C297.618 448.725 294.848 452.27 291.104 454.215C242.953 479.24 204.979 494.364 166.254 495.875C127.668 497.381 87.6508 485.382 35.4983 454.648C31.9978 452.585 29.4739 449.03 28.6342 444.999C-3.37273 291.307 -2.24848 197.165 28.2357 36.353C29.2415 31.047 33.0562 26.6929 38.1205 25.0834Z" fill="#023259" stroke="#023259" stroke-width="10"/>
</svg>
