<svg width="161" height="256" viewBox="0 0 161 256" fill="none" xmlns="http://www.w3.org/2000/svg">
  <rect width="13" height="228" fill="#023259"/>
  <rect y="215" width="26" height="13" fill="#023259"/>
  <rect x="26" y="202" width="16" height="13" fill="#023259"/>
  <rect x="39" y="189" width="14" height="13" fill="#023259"/>
  <rect x="67" y="189" width="14" height="26" fill="#023259"/>
  <rect x="94.2576" y="255.497" width="14" height="26" transform="rotate(-89.4735 94.2576 255.497)" fill="#023259"/>
  <rect x="120" y="215.138" width="14" height="26" transform="rotate(-0.564066 120 215.138)" fill="#023259"/>
  <rect x="107" y="189.138" width="14" height="26" transform="rotate(-0.564066 107 189.138)" fill="#023259"/>
  <rect x="92.988" y="161.922" width="14" height="27.2155" transform="rotate(-0.564066 92.988 161.922)" fill="#023259"/>
  <rect x="94.1577" y="175.305" width="14" height="66.7516" transform="rotate(-90.645 94.1577 175.305)" fill="#023259"/>
  <rect x="81" y="215" width="14" height="26" fill="#023259"/>
  <rect x="53" y="173" width="14" height="16" fill="#023259"/>
  <rect x="147" y="146" width="14" height="16" fill="#023259"/>
  <rect x="134" y="133" width="14" height="16" fill="#023259"/>
  <rect x="121" y="120" width="14" height="16" fill="#023259"/>
  <rect x="106" y="106" width="14" height="16" fill="#023259"/>
  <rect x="93" y="92" width="14" height="16" fill="#023259"/>
  <rect x="79" y="80" width="14" height="16" fill="#023259"/>
  <rect x="67" y="68" width="14" height="12" fill="#023259"/>
  <rect x="53" y="54" width="14" height="14" fill="#023259"/>
  <rect x="39" y="40" width="14" height="14" fill="#023259"/>
  <rect x="27" y="26" width="14" height="14" fill="#023259"/>
  <rect x="13" y="12" width="14" height="14" fill="#023259"/>
  <rect x="81" y="189" width="26" height="26" fill="#519391"/>
  <rect x="67" y="161" width="27" height="28" fill="#519391"/>
  <rect x="13" y="108" width="81" height="28" fill="#519391"/>
  <rect x="13" y="82" width="54" height="28" fill="#519391"/>
  <rect x="13" y="54" width="40" height="34" fill="#519391"/>
  <rect x="13" y="154" width="40" height="34" fill="#519391"/>
  <rect x="33" y="141" width="40" height="34" fill="#519391"/>
  <rect x="53" y="96" width="40" height="34" fill="#519391"/>
  <rect x="66" y="108" width="40" height="34" fill="#519391"/>
  <rect x="80" y="122" width="41" height="34" fill="#519391"/>
  <rect x="108" y="148" width="40" height="13" fill="#519391"/>
  <rect x="40" y="80" width="40" height="36" fill="#519391"/>
  <rect x="27" y="68" width="40" height="34" fill="#519391"/>
  <rect x="13" y="181" width="13" height="34" fill="#519391"/>
  <rect x="13" y="40" width="27" height="34" fill="#519391"/>
  <rect x="13" y="26" width="14" height="35" fill="#519391"/>
  <rect x="13" y="162" width="27" height="40" fill="#519391"/>
  <rect x="13" y="136" width="121" height="26" fill="#519391"/>
  <rect x="94" y="215" width="27" height="27" fill="#519391"/>
</svg>
