<svg width="22" height="32" viewBox="0 0 22 32" fill="none" xmlns="http://www.w3.org/2000/svg">
<path fill-rule="evenodd" clip-rule="evenodd" d="M17.34 31.1848C17.7664 31.5358 18.3966 31.4746 18.7476 31.0482L21.1761 28.0976C21.527 27.6712 21.4659 27.041 21.0394 26.69L8.66173 16.5027L20.2371 5.01716C20.6291 4.62816 20.6316 3.995 20.2426 3.60296L17.551 0.890278C17.162 0.498234 16.5288 0.495768 16.1368 0.884767L3.62849 13.2959C3.55292 13.3478 3.48327 13.411 3.4221 13.4854L3.35314 13.5692L1.05893 15.8456C0.794258 16.1082 0.707144 16.4821 0.798173 16.8179C0.70265 17.1835 0.819405 17.5877 1.13027 17.8436L17.34 31.1848Z" fill="#519391"/>
</svg>
