<svg width="24" height="24" viewBox="0 0 24 24" fill="none" xmlns="http://www.w3.org/2000/svg">
<path d="M15.9756 4.5C15.8578 4.5 15.75 4.59434 15.75 4.72559V8.84766L14.8154 8.30273C14.7569 8.26823 14.691 8.25146 14.625 8.25146C14.559 8.25146 14.4931 8.26823 14.4346 8.30273L12.189 9.6123C12.072 9.6798 12 9.80471 12 9.93896V12.561C12 12.696 12.072 12.8202 12.189 12.8877L14.4346 14.1973C14.4931 14.2318 14.559 14.2485 14.625 14.2485C14.691 14.2485 14.7569 14.2318 14.8154 14.1973L17.061 12.8877C17.178 12.8202 17.25 12.6953 17.25 12.561V11.25V9.93896V5.42285C17.25 5.28935 17.1787 5.16662 17.064 5.09912L16.0869 4.53076C16.0502 4.50976 16.0131 4.5 15.9756 4.5ZM8.625 8.25146C8.55919 8.25146 8.49345 8.26861 8.43457 8.30273L6.18896 9.6123C6.07196 9.6798 6 9.80471 6 9.93896V12.561C6 12.696 6.07196 12.8202 6.18896 12.8877L8.43457 14.1973C8.55232 14.2655 8.69768 14.2655 8.81543 14.1973L11.061 12.8877C11.178 12.8202 11.25 12.6953 11.25 12.561V9.93896C11.25 9.80396 11.178 9.6798 11.061 9.6123L8.81543 8.30273C8.75655 8.26861 8.69081 8.25146 8.625 8.25146ZM20.625 8.25146C20.559 8.25146 20.4931 8.26823 20.4346 8.30273L18.189 9.6123C18.072 9.6798 18 9.80471 18 9.93896V12.561C18 12.696 18.072 12.8202 18.189 12.8877L20.3672 14.2046C20.4842 14.2758 20.631 14.2765 20.7495 14.2075L21.8203 13.585C21.9313 13.5212 21.9321 13.3602 21.8203 13.2949L19.5 11.9282V10.582L20.625 9.92725L21.75 10.582V11.5195C21.75 11.6448 21.8553 11.6641 21.9258 11.6221C22.2093 11.4556 23.064 10.96 23.064 10.96C23.1787 10.8932 23.25 10.7697 23.25 10.6362V9.93896C23.25 9.80396 23.178 9.6798 23.061 9.6123L20.8154 8.30273C20.7562 8.26823 20.691 8.25146 20.625 8.25146ZM2.625 8.25293C2.559 8.25293 2.49307 8.2697 2.43457 8.3042L0.188965 9.6123C0.0719649 9.68055 0 9.80543 0 9.94043V13.2876C0 13.4511 0.176871 13.5525 0.317871 13.4707L1.31396 12.8906C1.42871 12.8231 1.5 12.7004 1.5 12.5669V10.585L2.625 9.92871L3.75 10.585V12.5669C3.75 12.7004 3.82129 12.8231 3.93604 12.8906L4.93213 13.4707C5.07313 13.5532 5.25 13.4511 5.25 13.2876V9.94043C5.25 9.80543 5.17804 9.68055 5.06104 9.6123L2.81543 8.3042C2.75693 8.2697 2.691 8.25293 2.625 8.25293ZM14.625 9.92725L15.75 10.5835V11.25V11.9165L14.625 12.5728L13.5 11.9165V10.5835L14.625 9.92725ZM20.625 10.5029L19.9819 10.8779V11.6265L20.625 12L21.2681 11.6265V10.8779L20.625 10.5029ZM11.5547 13.4985C11.4775 13.4985 11.3995 13.5174 11.332 13.5557L9.22266 14.7744C9.08391 14.8509 9 15.0015 9 15.1582V17.5928C9 17.7495 9.08766 17.8971 9.22266 17.9766L9.77783 18.293C10.0441 18.4242 10.1419 18.4248 10.2627 18.4248C10.6602 18.4248 10.8867 18.1871 10.8867 17.7671V15.3618C10.8867 15.3251 10.8582 15.2988 10.8252 15.2988H10.5586C10.5218 15.2988 10.4956 15.3288 10.4956 15.3618V17.7671C10.4956 17.9493 10.303 18.1362 9.98877 17.9795L9.41162 17.647C9.39287 17.6357 9.37939 17.6131 9.37939 17.5913V15.1567C9.37939 15.135 9.38987 15.1094 9.41162 15.0981L11.521 13.8823C11.5435 13.8711 11.5689 13.8711 11.5869 13.8823L13.6978 15.0981C13.7195 15.1094 13.73 15.1312 13.73 15.1567V17.5913C13.73 17.6168 13.7158 17.6387 13.6978 17.6499L11.5869 18.8701C11.5682 18.8814 11.539 18.8814 11.521 18.8701L10.9819 18.5493C10.9677 18.5418 10.9449 18.5374 10.9307 18.5449C10.7814 18.6327 10.7515 18.6442 10.6128 18.6914C10.576 18.7027 10.5261 18.7252 10.6318 18.7837L11.332 19.1997C11.4018 19.2365 11.4782 19.2583 11.5547 19.2583C11.6349 19.2583 11.7129 19.2365 11.7744 19.1968L13.8838 17.9766C14.0225 17.9001 14.1064 17.7495 14.1064 17.5928V15.1582C14.1064 15.0015 14.0188 14.8547 13.8838 14.7744L11.7744 13.5557C11.7088 13.5174 11.6318 13.4985 11.5547 13.4985ZM14.8447 14.6221C14.6295 14.6221 14.4404 14.7961 14.4404 15.0264C14.4404 15.2491 14.622 15.4321 14.8447 15.4321C15.0675 15.4321 15.249 15.2491 15.249 15.0264C15.249 14.7961 15.0637 14.6183 14.8447 14.6221ZM14.8403 14.6865C15.0308 14.6865 15.1846 14.8366 15.1846 15.0264C15.1846 15.2124 15.0301 15.3661 14.8403 15.3706C14.6536 15.3706 14.502 15.2161 14.502 15.0264C14.502 14.8366 14.6543 14.6865 14.8403 14.6865ZM14.6924 14.7964V15.252H14.7788V15.0703H14.8594C14.8924 15.0703 14.9002 15.0844 14.9077 15.1099C14.9077 15.1136 14.9215 15.2317 14.9253 15.2534H15.019C15.0085 15.2317 15.0008 15.1693 14.9971 15.1318C14.9866 15.0733 14.9831 15.033 14.9209 15.0293C14.9539 15.018 15.0088 15.0005 15.0088 14.9165C15.0088 14.7958 14.9039 14.7964 14.8491 14.7964H14.6924ZM14.7788 14.8696H14.8521C14.8746 14.8696 14.918 14.8689 14.918 14.9312C14.918 14.9567 14.9069 14.9978 14.8477 14.9971H14.7788V14.8696ZM12.1201 15.2417C11.5179 15.2417 11.1606 15.4984 11.1606 15.9214C11.1606 16.3849 11.5185 16.5089 12.0952 16.5674C12.7852 16.6364 12.8394 16.7356 12.8394 16.8706C12.8394 17.1076 12.6491 17.2061 12.2036 17.2061C11.6449 17.2061 11.5219 17.0675 11.4814 16.79C11.4777 16.7608 11.4515 16.7388 11.4185 16.7388H11.1445C11.1115 16.7388 11.083 16.765 11.083 16.8018C11.083 17.1558 11.276 17.5796 12.1992 17.5796C12.8765 17.5788 13.2598 17.3165 13.2598 16.856C13.2598 16.4 12.9527 16.2787 12.3032 16.1909C11.6462 16.1032 11.5811 16.059 11.5811 15.9053C11.5811 15.7778 11.6349 15.6108 12.1201 15.6108C12.5544 15.6108 12.7162 15.7058 12.7822 15.9976C12.7897 16.0268 12.8101 16.0444 12.8394 16.0444H13.1133C13.1313 16.0444 13.1467 16.0374 13.1572 16.0269C13.1685 16.0126 13.1756 15.998 13.1719 15.98C13.1284 15.476 12.7959 15.2417 12.1201 15.2417Z" fill="#023259"/>
</svg>
