<?xml version="1.0" encoding="utf-8"?>
<!-- Generator: Adobe Illustrator 24.2.3, SVG Export Plug-In . SVG Version: 6.00 Build 0)  -->
<svg version="1.1" xmlns="http://www.w3.org/2000/svg" xmlns:xlink="http://www.w3.org/1999/xlink" x="0px" y="0px"
	 viewBox="0 0 300 300" style="enable-background:new 0 0 300 300;" xml:space="preserve">
<style type="text/css">
	.st0{fill:#003555;}
	.st1{fill:#36857B;}
	.st2{fill:#70C08D;}
	.st3{fill:#6B938D;}
</style>
<g id="Layer_1">
</g>
<g id="Isolation_Mode">
	<g id="phone_icon_1_">
		<rect x="364.9" y="1016" class="st0" width="3.8" height="5.7"/>
		<rect x="361.1" y="1021.1" class="st0" width="20.9" height="2.5"/>
		<rect x="361.1" y="1021.7" class="st0" width="1.9" height="3.8"/>
		<rect x="380" y="1021.7" class="st0" width="1.9" height="3.8"/>
		<rect x="381.9" y="1023.6" class="st0" width="1.9" height="33.5"/>
		<rect x="380" y="1055.2" class="st0" width="3.8" height="1.9"/>
		<rect x="361.1" y="1057.1" class="st0" width="20.9" height="1.9"/>
		<rect x="361.1" y="1055.2" class="st0" width="1.9" height="3.8"/>
		<rect x="359.2" y="1023.6" class="st0" width="1.9" height="33.5"/>
		<rect x="363" y="1023.6" class="st1" width="17.1" height="33.5"/>
		<rect x="361.1" y="1025.5" class="st1" width="3.2" height="29.7"/>
		<rect x="378.8" y="1025.5" class="st1" width="3.2" height="29.7"/>
		<rect x="368.7" y="1051.4" class="st0" width="5.7" height="3.8"/>
		<rect x="363" y="1028" class="st0" width="17.1" height="22.1"/>
		<rect x="364.9" y="1029.9" class="st2" width="13.3" height="19"/>
		<rect x="366.8" y="1029.9" class="st3" width="11.4" height="17.1"/>
	</g>
	<g id="phone_icon_2_">
		<rect x="103.2" class="st0" width="26.3" height="39.4"/>
		<rect x="77" y="35" class="st0" width="144.4" height="17.5"/>
		<rect x="77" y="39.4" class="st0" width="13.1" height="26.3"/>
		<rect x="208.3" y="39.4" class="st0" width="13.1" height="26.3"/>
		<rect x="221.4" y="52.5" class="st0" width="13.1" height="231.9"/>
		<rect x="208.3" y="271.3" class="st0" width="26.3" height="13.1"/>
		<rect x="77" y="284.4" class="st0" width="144.4" height="13.1"/>
		<rect x="77" y="271.3" class="st0" width="13.1" height="26.3"/>
		<rect x="63.9" y="52.5" class="st0" width="13.1" height="231.9"/>
		<rect x="90.1" y="52.5" class="st1" width="118.1" height="231.9"/>
		<rect x="77" y="65.6" class="st1" width="21.9" height="205.7"/>
		<rect x="199.5" y="65.6" class="st1" width="21.9" height="205.7"/>
		<rect x="129.5" y="245" class="st0" width="39.4" height="26.3"/>
		<rect x="90.1" y="83.1" class="st0" width="118.1" height="153.1"/>
		<rect x="103.2" y="96.3" class="st2" width="91.9" height="131.3"/>
		<rect x="116.4" y="96.3" class="st3" width="78.8" height="118.1"/>
	</g>
</g>
</svg>
