<svg width="24" height="24" viewBox="0 0 24 24" fill="none" xmlns="http://www.w3.org/2000/svg">
<path d="M20.487 17.14L16.422 13.444C16.2298 13.2693 15.9773 13.1762 15.7178 13.1842C15.4583 13.1922 15.212 13.3008 15.031 13.487L12.638 15.948C12.062 15.838 10.904 15.477 9.712 14.288C8.52 13.095 8.159 11.934 8.052 11.362L10.511 8.968C10.6974 8.78712 10.8061 8.54082 10.8142 8.2812C10.8222 8.02159 10.7289 7.76904 10.554 7.57699L6.859 3.51299C6.68404 3.32035 6.44088 3.2035 6.18115 3.18725C5.92143 3.17101 5.6656 3.25665 5.468 3.42599L3.298 5.28699C3.12511 5.46051 3.02192 5.69145 3.008 5.93599C2.993 6.18599 2.707 12.108 7.299 16.702C11.305 20.707 16.323 21 17.705 21C17.907 21 18.031 20.994 18.064 20.992C18.3085 20.9783 18.5393 20.8747 18.712 20.701L20.572 18.53C20.742 18.333 20.8283 18.0774 20.8124 17.8177C20.7965 17.558 20.6797 17.3148 20.487 17.14V17.14Z" fill="#023259"/>
</svg>
