<svg width="24" height="24" viewBox="0 0 24 24" fill="none" xmlns="http://www.w3.org/2000/svg">
<g clip-path="url(#clip0_24_13668)">
<path d="M23.456 4.44294C23.0789 4.61016 22.6913 4.7513 22.2952 4.86588C22.7642 4.33556 23.1217 3.71156 23.3399 3.02872C23.3889 2.87566 23.3381 2.70812 23.2123 2.60802C23.0867 2.50784 22.9121 2.49584 22.7738 2.57783C21.9326 3.07672 21.0251 3.43525 20.0735 3.6449C19.115 2.70828 17.8131 2.17525 16.4673 2.17525C13.6263 2.17525 11.3151 4.48645 11.3151 7.32727C11.3151 7.55101 11.3292 7.77352 11.3573 7.99292C7.83197 7.6834 4.55458 5.95068 2.304 3.18998C2.22379 3.09158 2.10023 3.03855 1.97373 3.04869C1.84715 3.0586 1.73342 3.12998 1.66947 3.23969C1.21301 4.02294 0.97169 4.91876 0.97169 5.83021C0.97169 7.07163 1.41492 8.24949 2.19786 9.16985C1.95979 9.0874 1.72877 8.98436 1.50828 8.86196C1.38991 8.79607 1.24544 8.79708 1.12784 8.86451C1.01017 8.93194 0.936387 9.05597 0.93329 9.19153C0.932748 9.21437 0.932748 9.23721 0.932748 9.26036C0.932748 11.1134 1.93006 12.7817 3.45484 13.691C3.32384 13.6779 3.19293 13.6589 3.06286 13.6341C2.92877 13.6085 2.79089 13.6555 2.70046 13.7577C2.60988 13.8599 2.57992 14.0024 2.62165 14.1324C3.18604 15.8945 4.63912 17.1906 6.39577 17.5857C4.93881 18.4983 3.27267 18.9763 1.52361 18.9763C1.15866 18.9763 0.791612 18.9548 0.432387 18.9123C0.253935 18.8911 0.0833028 18.9965 0.0225286 19.1662C-0.0382456 19.3359 0.0261673 19.5252 0.177987 19.6225C2.42493 21.0632 5.02304 21.8247 7.6913 21.8247C12.9368 21.8247 16.2182 19.3512 18.0472 17.2761C20.328 14.6887 21.6361 11.2639 21.6361 7.87997C21.6361 7.7386 21.6339 7.59584 21.6296 7.45354C22.5294 6.77558 23.3042 5.95509 23.9346 5.01205C24.0303 4.86882 24.02 4.67953 23.909 4.54769C23.7982 4.41576 23.6136 4.37311 23.456 4.44294Z" fill="#023259"/>
</g>
<defs>
<clipPath id="clip0_24_13668">
<rect width="24" height="24" fill="white"/>
</clipPath>
</defs>
</svg>
