<svg width="24" height="24" viewBox="0 0 24 24" fill="none" xmlns="http://www.w3.org/2000/svg">
<path d="M21.6 1.92H2.4C2.13456 1.92 1.92 2.13504 1.92 2.4V21.6C1.92 21.865 2.13456 22.08 2.4 22.08H21.6C21.8654 22.08 22.08 21.865 22.08 21.6V2.4C22.08 2.13504 21.8654 1.92 21.6 1.92ZM13.92 12.6936H11.52V20.16H9.6V12.6936H7.2V11.04H13.92V12.6936ZM14.4581 19.7338V17.7379C14.4581 17.7379 15.5482 18.5597 16.8562 18.5597C18.1642 18.5597 18.1138 17.7043 18.1138 17.5872C18.1138 16.3459 14.4077 16.3459 14.4077 13.596C14.4077 9.85632 19.8077 11.3318 19.8077 11.3318L19.7405 13.1098C19.7405 13.1098 18.8347 12.5059 17.8118 12.5059C16.789 12.5059 16.4198 12.9922 16.4198 13.512C16.4198 14.8536 20.1595 14.7197 20.1595 17.4197C20.16 21.5784 14.4581 19.7338 14.4581 19.7338Z" fill="#023259"/>
</svg>
